<?xml version="1.0" encoding="utf-8" ?>
<svg baseProfile="tiny" height="100%" version="1.2" width="100%" xmlns="http://www.w3.org/2000/svg" xmlns:ev="http://www.w3.org/2001/xml-events" xmlns:xlink="http://www.w3.org/1999/xlink"><defs /><polygon fill="#00FFA3" points="522,691" /><polygon fill="#00FFA3" points="556,558 555,559 550,559 549,560 547,560 546,561 545,561 544,562 543,562 542,563 541,563 539,565 538,565 538,566 537,567 536,567 535,568 535,569 531,573 531,574 528,577 528,578 525,581 525,582 522,585 522,586 519,589 519,590 516,593 516,594 514,596 514,597 511,600 511,601 507,605 507,606 504,609 504,610 501,613 501,614 498,617 498,618 497,619 497,620 495,622 495,623 494,624 494,627 493,628 493,632 492,633 492,635 493,636 493,642 494,643 494,645 495,646 495,647 496,648 496,649 497,650 497,651 498,652 498,653 501,656 501,657 502,658 502,659 505,662 505,663 507,665 507,666 506,667 507,666 509,668 509,669 510,670 509,671 510,670 512,672 512,673 514,675 514,676 516,678 516,679 518,681 518,682 520,684 520,685 523,688 523,689 525,691 525,692 528,695 528,696 530,698 530,699 532,701 532,702 534,704 534,705 536,707 536,708 539,711 539,712 541,714 541,715 543,717 543,718 545,720 545,721 548,724 548,725 549,726 549,727 552,730 552,731 554,733 554,734 556,736 556,737 559,740 559,741 562,744 562,745 566,749 567,749 568,750 568,751 569,751 571,753 572,753 573,754 574,754 575,755 576,755 577,756 578,756 579,757 581,757 582,758 585,758 586,759 590,759 591,760 683,760 684,759 687,759 688,758 689,758 690,757 691,757 694,754 694,753 696,751 696,748 697,747 697,743 696,742 696,739 695,738 695,737 694,736 694,735 693,734 693,733 691,731 691,730 689,728 689,727 686,724 686,723 685,722 685,721 683,719 683,718 680,715 680,714 678,712 678,711 676,709 676,708 674,706 674,705 672,703 672,702 670,700 670,699 668,697 668,696 666,694 666,693 664,691 664,690 662,688 662,687 660,685 660,684 658,682 658,681 656,679 656,678 654,676 654,675 651,672 651,671 649,669 649,668 647,666 647,665 645,663 645,662 643,660 643,659 641,657 641,656 639,654 639,653 637,651 637,650 635,648 635,647 633,645 633,644 630,641 630,640 628,638 628,637 626,635 626,634 624,632 624,631 622,629 622,628 619,625 619,624 618,623 618,622 616,620 616,619 613,616 613,615 611,613 611,612 609,610 609,609 606,606 606,605 604,603 604,602 602,600 602,599 600,597 600,596 598,594 598,593 596,591 596,590 594,588 594,587 591,584 591,583 589,581 589,580 587,578 587,577 584,574 584,573 582,571 582,570 579,567 578,567 574,563 573,563 572,562 571,562 570,561 569,561 568,560 565,560 564,559 561,559 560,558" /><polygon fill="#00FFA3" points="321,328" /><polygon fill="#00FFA3" points="353,276 352,277 351,277 350,278 349,278 348,279 347,279 346,280 345,280 342,283 341,283 333,291 333,292 330,295 330,296 329,297 329,298 328,299 328,300 327,301 327,302 326,303 326,305 325,306 325,309 324,310 324,316 323,317 323,729 324,730 324,737 325,738 325,741 326,742 326,743 327,744 327,745 329,747 329,748 336,755 337,755 338,756 339,756 340,757 341,757 342,758 343,758 344,759 348,759 349,760 354,760 355,759 359,759 360,758 362,758 363,757 364,757 365,756 366,756 367,755 368,755 370,753 371,753 379,745 379,744 384,739 384,738 387,735 387,734 390,731 390,730 394,726 394,725 397,722 397,721 400,718 400,717 404,713 404,712 407,709 407,708 410,705 410,704 413,701 413,700 416,697 416,696 420,692 420,691 423,688 423,687 426,684 426,683 429,680 429,679 432,676 432,675 436,671 436,670 439,667 439,666 443,662 443,661 446,658 446,657 449,654 449,653 452,650 452,649 455,646 455,645 458,642 458,641 461,638 461,637 464,634 464,633 467,630 467,629 470,626 470,625 474,621 474,620 476,618 476,617 480,613 480,612 483,609 483,608 487,604 487,603 489,601 489,600 493,596 493,595 496,592 496,591 498,589 498,588 502,584 502,583 505,580 505,579 508,576 508,575 512,571 512,570 515,567 515,566 517,564 517,563 521,559 521,558 524,555 524,554 527,551 527,550 531,546 531,545 533,543 533,542 536,539 536,538 540,534 540,533 543,530 543,529 547,525 547,524 549,522 549,521 553,517 553,516 556,513 556,512 559,509 559,508 562,505 562,504 565,501 565,500 568,497 568,496 572,492 572,491 576,487 576,486 578,484 578,483 581,480 582,481 581,480 582,479 582,478 585,475 585,474 588,471 588,470 591,467 591,466 595,462 595,461 598,458 598,457 602,453 602,452 605,449 605,448 608,445 608,444 612,440 612,439 615,436 615,435 619,431 619,430 622,427 622,426 626,422 626,421 628,419 628,418 632,414 632,413 635,410 635,409 638,406 638,405 642,401 642,400 645,397 645,396 648,393 648,392 652,388 652,387 656,383 656,382 658,380 658,379 662,375 662,374 665,371 665,370 669,366 669,365 672,362 672,361 675,358 675,357 679,353 679,352 682,349 682,348 685,345 685,344 688,341 688,340 691,337 691,336 695,332 695,331 697,329 697,328 536,328 534,330 534,331 531,334 531,335 530,336 530,337 527,340 527,341 524,344 524,345 522,347 522,348 519,351 519,352 517,354 517,355 515,357 515,358 512,361 512,362 510,364 510,365 507,368 507,369 505,371 505,372 502,375 502,376 501,377 501,378 498,381 498,382 495,385 495,386 493,388 493,389 490,392 490,393 488,395 488,396 486,398 486,399 483,402 483,403 481,405 481,406 479,408 479,409 477,411 477,412 474,415 474,416 471,419 471,420 469,422 469,423 467,425 467,426 465,428 465,429 462,432 462,433 460,435 460,436 457,439 457,440 455,442 455,443 452,446 452,447 447,452 441,452 438,449 438,447 437,446 437,328 354,328 353,327" /></svg>